<?xml version="1.0" encoding="utf-8"?>
<!-- Generator: Adobe Illustrator 20.1.0, SVG Export Plug-In . SVG Version: 6.00 Build 0)  -->
<svg version="1.1" id="Capa_1" xmlns="http://www.w3.org/2000/svg" xmlns:xlink="http://www.w3.org/1999/xlink" x="0px" y="0px"
	 viewBox="0 0 320 327.9" style="enable-background:new 0 0 320 327.9;" xml:space="preserve">
<style type="text/css">
	.st0{fill:#33A2E5;}
	.st1{fill:#343434;}
	.st2{fill:#FFFFFF;}
	.st3{fill:none;stroke:#273642;stroke-width:14.9175;stroke-linecap:round;stroke-linejoin:round;stroke-miterlimit:10;}
</style>
<g>
	
		<ellipse transform="matrix(0.617 -0.7869 0.7869 0.617 -71.5511 191.0048)" class="st0" cx="160.5" cy="169" rx="151.2" ry="151.2"/>
</g>
<path class="st1" d="M178.4,319.1c4.4-27.9-23.9-36.2-23.9-36.2l-1.1-0.2c4-17-1-29.7-7.4-38.5l9.5-12.1c1.9,1.5,37.9-4.4,37.9-4.4
	l24.5,19.2c4.1,3.2,9.9,2.5,13.1-1.6l14.4-18.3c17.4-22.2,16.6-40.3,12.9-51.6c-1.8-5.4-4.4-9.7-6.8-12.9l9.5-12.1
	c31.4-40.1,37.2-75.1,36.6-97.4c-0.7-24.8-9.4-40.1-9.8-40.7c-1.2-2.1-3.2-3.6-5.4-4.3c-0.7-0.2-17.6-5-41.9,0.2
	c-21.8,4.7-54.4,18.7-85.8,58.8l-9.5,12.1c-3.7-1.6-8.5-3.1-14.2-3.5c-11.8-0.9-29.6,2.7-47,24.9l-14.5,18.4
	c-3.2,4.1-2.5,9.9,1.6,13.1l24.5,19.2c0,0,2.7,33.4,2.2,41.2l-14.5,18.5c-7.3-2.9-19.2-5.8-30.1,0.7c-6.3-4.2-21.8-13.8-38.8-3.6
	c0,0,6.8,42.5,51.9,79.3C117.8,329.4,178.4,319.1,178.4,319.1z"/>
<path class="st2" d="M239.2,178.2c0.6,1.2,1.1,2.5,1.5,3.9c2.9,9.9-0.5,21.2-10.1,33.5l-8.6,11l-12.8-10.1L239.2,178.2z"/>
<path class="st2" d="M102.8,133.1L90,123l8.6-11c13.7-17.5,26.3-19,34.3-17.3L102.8,133.1z"/>
<path class="st2" d="M115.7,162.2L115.7,162.2c-1-8.5,1.4-17.1,6.6-23.8l32.5-41.5l14.4-18.3c22.2-28.3,47.1-45.7,74-51.8
	c13.8-3.1,24.6-2.3,30-1.5c5.1,12.4,17.9,56.4-27,113.7l-14.4,18.3l-33.1,42.3c-4.9,6.2-12,10.3-19.9,11.2l-1,0.1
	c-7.5,0.9-15.1-1.2-21.1-5.9l-30.3-23.7C120.5,176.6,116.6,169.7,115.7,162.2z"/>
<path class="st1" d="M134.1,224.1l-17.6-13.8c-2-1.5-2.3-4.3-0.7-5.9l85.1-90.4c3.2-3.1,8.8,1.2,6.5,5.1L140,223.3
	C138.8,225.3,136.1,225.6,134.1,224.1z"/>
<ellipse transform="matrix(0.617 -0.7869 0.7869 0.617 11.3117 210.9171)" class="st1" cx="222.4" cy="93.8" rx="13.6" ry="13.6"/>
</svg>
