<?xml version="1.0" encoding="utf-8"?>
<!-- Generator: Adobe Illustrator 20.1.0, SVG Export Plug-In . SVG Version: 6.00 Build 0)  -->
<svg version="1.1" id="Capa_1" xmlns="http://www.w3.org/2000/svg" xmlns:xlink="http://www.w3.org/1999/xlink" x="0px" y="0px"
	 viewBox="0 0 456 541" style="enable-background:new 0 0 456 541;" xml:space="preserve">
<style type="text/css">
	.st0{fill:#33A2E5;}
	.st1{fill:#343434;}
	.st2{fill:#FFFFFF;}
	.st3{fill:none;stroke:#273642;stroke-width:14.9175;stroke-linecap:round;stroke-linejoin:round;stroke-miterlimit:10;}
	.st4{enable-background:new    ;}
</style>
<g>
	
		<ellipse transform="matrix(0.617 -0.7869 0.7869 0.617 -79.9491 273.9285)" class="st0" cx="241.5" cy="219.1" rx="151.2" ry="151.2"/>
</g>
<path class="st1" d="M259.4,369.2c4.4-27.9-23.9-36.2-23.9-36.2l-1.1-0.2c4-17-1-29.7-7.4-38.5l9.5-12.1c1.9,1.5,37.9-4.4,37.9-4.4
	l24.5,19.2c4.1,3.2,9.9,2.5,13.1-1.6l14.4-18.3c17.4-22.2,16.6-40.3,12.9-51.6c-1.8-5.4-4.4-9.7-6.8-12.9l9.5-12.1
	c31.4-40.1,37.2-75.1,36.6-97.4c-0.7-24.8-9.4-40.1-9.8-40.7c-1.2-2.1-3.2-3.6-5.4-4.3c-0.7-0.2-17.6-5-41.9,0.2
	c-21.8,4.7-54.4,18.7-85.8,58.8l-9.5,12.1c-3.7-1.6-8.5-3.1-14.2-3.5c-11.8-0.9-29.6,2.7-47,24.9L150.5,169
	c-3.2,4.1-2.5,9.9,1.6,13.1l24.5,19.2c0,0,2.7,33.4,2.2,41.2L164.3,261c-7.3-2.9-19.2-5.8-30.1,0.7c-6.3-4.2-21.8-13.8-38.8-3.6
	c0,0,6.8,42.5,51.9,79.3C198.8,379.5,259.4,369.2,259.4,369.2z"/>
<path class="st2" d="M320.2,228.3c0.6,1.2,1.1,2.5,1.5,3.9c2.9,9.9-0.5,21.2-10.1,33.5l-8.6,11l-12.8-10.1L320.2,228.3z"/>
<path class="st2" d="M183.8,183.2L171,173.1l8.6-11c13.7-17.5,26.3-19,34.3-17.3L183.8,183.2z"/>
<path class="st2" d="M196.7,212.3L196.7,212.3c-1-8.5,1.4-17.1,6.6-23.8l32.5-41.5l14.4-18.3c22.2-28.3,47.1-45.7,74-51.8
	c13.8-3.1,24.6-2.3,30-1.5c5.1,12.4,17.9,56.4-27,113.7l-14.4,18.3l-33.1,42.3c-4.9,6.2-12,10.3-19.9,11.2l-1,0.1
	c-7.5,0.9-15.1-1.2-21.1-5.9l-30.3-23.7C201.5,226.7,197.6,219.8,196.7,212.3z"/>
<path class="st3" d="M217.4,249.9"/>
<path class="st1" d="M215.1,274.2l-17.6-13.8c-2-1.5-2.3-4.3-0.7-5.9l85.1-90.4c3.2-3.1,8.8,1.2,6.5,5.1L221,273.4
	C219.8,275.4,217.1,275.7,215.1,274.2z"/>
<ellipse transform="matrix(0.617 -0.7869 0.7869 0.617 2.9232 293.8574)" class="st1" cx="303.4" cy="143.9" rx="13.6" ry="13.6"/>
<g class="st4">
	
		<image style="overflow:visible;opacity:0.5;" width="185" height="49" xlink:href="108A0C5431851E2.png"  transform="matrix(1 0 0 1 148 383)">
	</image>
	<g>
		<g>
			<path class="st2" d="M153.9,413.2c0-1.1,0.8-1.9,1.9-1.9h1.5c1,0,1.9,0.8,1.9,1.9v0.7c0,2.5,0.5,3.8,1.2,4.4
				c0.6,0.6,1.5,0.7,2.2,0.7c2.2,0,3.4-1,3.4-3.8c0-2.5-2.4-4.5-5-6.5v0.1c-3.5-2.8-7.2-5.6-7.2-10.9c0-6,3.1-9.4,8.7-9.4
				c5.7,0,8.7,3.7,8.7,10.4v0.7c0,1.1-0.8,1.9-1.9,1.9H168c-1.1,0-1.9-0.8-1.9-1.9v-0.7c0-3.5-1.1-5.1-3.4-5.1c-2.2,0-3.4,1.2-3.4,4
				c0,2.7,2.6,4.8,5.2,6.8h-0.1c3.5,2.7,7,5.4,7,10.5c0,5.9-3.1,9.1-8.7,9.1c-5.8,0-8.7-3.4-8.7-10.3V413.2z"/>
			<path class="st2" d="M185.5,414.5h-5.4l-1.9,8.3c-0.2,0.8-1.1,1.5-1.9,1.5h-1.5c-1.3,0-2.1-1.1-1.9-2.3l2.5-11.2l4.8-20.7
				c0.2-0.8,1.1-1.5,1.9-1.5h1.2c0.8,0,1.7,0.7,1.9,1.5l7.3,31.9c0.3,1.2-0.6,2.3-1.9,2.3h-1.5c-0.8,0-1.6-0.7-1.9-1.5L185.5,414.5z
				 M181.3,409.3h3c-0.6-2.5-0.5-4-1.5-8.5L181.3,409.3z"/>
			<path class="st2" d="M208.6,424.2c-0.6,0-1.5-0.6-1.7-1.2l-7.4-18.2v17.5c0,1.1-0.9,1.9-1.9,1.9h-1.5c-1,0-1.9-0.8-1.9-1.9v-31.9
				c0-1.1,0.9-1.9,1.9-1.9h1.3c0.7,0,1.5,0.6,1.7,1.2l7.4,18.2v-17.5c0-1.1,0.8-1.9,1.9-1.9h1.5c1.1,0,1.9,0.8,1.9,1.9v31.9
				c0,1.1-0.8,1.9-1.9,1.9H208.6z"/>
			<path class="st2" d="M232.1,422.3c0,1.1-0.9,1.9-1.9,1.9h-1.5c-1.1,0-1.9-0.8-1.9-1.9v-31.9c0-1.1,0.8-1.9,1.9-1.9h1.5
				c1,0,1.9,0.8,1.9,1.9V422.3z"/>
			<path class="st2" d="M235.8,413.2c0-1.1,0.8-1.9,1.9-1.9h1.5c1,0,1.9,0.8,1.9,1.9v0.7c0,2.5,0.5,3.8,1.2,4.4
				c0.6,0.6,1.5,0.7,2.2,0.7c2.2,0,3.4-1,3.4-3.8c0-2.5-2.4-4.5-5-6.5v0.1c-3.5-2.8-7.2-5.6-7.2-10.9c0-6,3.1-9.4,8.7-9.4
				c5.7,0,8.7,3.7,8.7,10.4v0.7c0,1.1-0.8,1.9-1.9,1.9h-1.5c-1.1,0-1.9-0.8-1.9-1.9v-0.7c0-3.5-1.1-5.1-3.4-5.1
				c-2.2,0-3.4,1.2-3.4,4c0,2.7,2.6,4.8,5.2,6.8h-0.1c3.5,2.7,7,5.4,7,10.5c0,5.9-3.1,9.1-8.7,9.1c-5.8,0-8.7-3.4-8.7-10.3V413.2z"
				/>
			<path class="st2" d="M261.9,422.3c0,1.1-0.9,1.9-1.9,1.9h-1.5c-1.1,0-1.9-0.8-1.9-1.9v-31.9c0-1.1,0.8-1.9,1.9-1.9h1.5
				c1,0,1.9,0.8,1.9,1.9V422.3z"/>
			<path class="st2" d="M267.5,424.2c-1.1,0-1.9-0.8-1.9-1.9v-31.9c0-1.1,0.8-1.9,1.9-1.9h5.4c6.4,0,9.3,3.6,9.3,10.5v14.7
				c0,6.9-3,10.5-9.3,10.5H267.5z M270.9,393.8V419h2.1c2.8,0,4-1.7,4-5.2V399c0-3.6-1.2-5.2-4-5.2H270.9z"/>
			<path class="st2" d="M303.7,422.3c0,1.1-0.8,1.9-1.9,1.9h-1.5c-1.1,0-1.9-0.8-1.9-1.9v-8.8c0-2.6-1.5-4.1-4.1-4.1h-2.4v13
				c0,1.1-0.8,1.9-1.9,1.9h-1.5c-1.1,0-1.9-0.8-1.9-1.9v-31.9c0-1.1,0.8-1.9,1.9-1.9h6.7c6.5,0,8.8,3.3,8.8,10.4
				c0,3.3-0.6,5.9-2.2,7.6c-0.2,0.2-0.3,0.3-0.4,0.4c1.5,1.6,2.3,3.8,2.3,6.6V422.3z M291.9,404h2.4c3,0,4.5-1.5,4.5-5.1
				s-0.8-5.1-3.6-5.1h-3.3V404z"/>
			<path class="st2" d="M307.7,398.9c0-6.7,2.9-10.3,8.7-10.3c5.8,0,8.7,3.6,8.7,10.3v15c0,4.2-1.1,6.6-2.8,8.3
				c-1.7,1.7-4,2.1-5.9,2.1c-1.9,0-4.1-0.4-5.9-2.1c-1.6-1.6-2.8-4.1-2.8-8.3V398.9z M313,413.9c0,3.5,1.1,5.1,3.4,5.1
				c2.2,0,3.4-1.5,3.4-5.1v-15c0-3.6-1.1-5.1-3.4-5.1c-2.3,0-3.4,1.6-3.4,5.1V413.9z"/>
		</g>
	</g>
</g>
<g class="st4">
	
		<image style="overflow:visible;opacity:0.5;" width="340" height="86" xlink:href="108A0C5431851E3.png"  transform="matrix(1 0 0 1 69 427)">
	</image>
	<g>
		<g>
			<path class="st2" d="M101.5,432.6c2.2,0,3.9,1.7,3.9,3.9v2.9c0,2.2-1.7,3.9-3.9,3.9H85v20.3h13.6c2.2,0,3.9,1.7,3.9,3.9v2.9
				c0,2.2-1.7,3.9-3.9,3.9H85v20.4h16.5c2.2,0,3.9,1.7,3.9,3.9v2.9c0,2.2-1.7,3.9-3.9,3.9H78.2c-2.2,0-3.9-1.7-3.9-3.9v-65
				c0-2.2,1.7-3.9,3.9-3.9H101.5z"/>
			<path class="st2" d="M130.5,505.3c-1.6,0-3.3-1.4-3.7-3l-3.7-24.3v23.4c0,2.2-1.8,3.9-3.9,3.9h-3c-2.2,0-3.9-1.7-3.9-3.9v-65
				c0-2.2,1.7-3.9,3.9-3.9h3.2c1.6,0,3.3,1.4,3.7,3l8.5,43.5l8.4-43.5c0.3-1.6,2.2-3,3.8-3h3.2c2.2,0,3.9,1.7,3.9,3.9v65
				c0,2.2-1.7,3.9-3.9,3.9h-3c-2.2,0-3.9-1.7-3.9-3.9v-23.2l-3.6,24c-0.4,1.7-2.2,3.1-3.8,3.1H130.5z"/>
			<path class="st2" d="M171.1,474.3v27.2c0,2.2-1.7,3.9-3.8,3.9h-3c-2.2,0-3.9-1.7-3.9-3.9v-65c0-2.2,1.7-3.9,3.9-3.9H176
				c13.2,0,19,6.9,19,20.8c0,13.9-5.8,20.8-19,20.8H171.1z M171.1,443.3v20.3h4.9c5.8,0,8.2-3.1,8.2-10.1c0-7.2-2.4-10.1-8.2-10.1
				H171.1z"/>
			<path class="st2" d="M237.2,501.3c0,2.2-1.7,3.9-3.9,3.9h-3c-2.2,0-3.9-1.7-3.9-3.9v-18c0-5.4-3-8.4-8.3-8.4h-4.9v26.4
				c0,2.2-1.7,3.9-3.8,3.9h-3c-2.2,0-3.9-1.7-3.9-3.9v-65c0-2.2,1.7-3.9,3.9-3.9H220c13.3,0,17.9,6.7,17.9,21.2
				c0,6.7-1.2,12.1-4.5,15.4c-0.3,0.3-0.5,0.5-0.9,0.9c3.1,3.3,4.6,7.8,4.6,13.4V501.3z M213.2,464h4.9c6,0,9.2-3,9.2-10.4
				s-1.6-10.4-7.2-10.4h-6.8V464z"/>
			<path class="st2" d="M272.5,432.6c2.2,0,3.9,1.7,3.9,3.9v2.9c0,2.2-1.7,3.9-3.9,3.9H256v20.3h13.6c2.2,0,3.9,1.7,3.9,3.9v2.9
				c0,2.2-1.7,3.9-3.9,3.9H256v20.4h16.5c2.2,0,3.9,1.7,3.9,3.9v2.9c0,2.2-1.7,3.9-3.9,3.9h-23.3c-2.2,0-3.9-1.7-3.9-3.9v-65
				c0-2.2,1.7-3.9,3.9-3.9H272.5z"/>
			<path class="st2" d="M312.8,505.3c-1.3,0-3.1-1.2-3.6-2.4l-15-37.1v35.6c0,2.2-1.8,3.9-3.9,3.9h-3.1c-2.1,0-3.9-1.7-3.9-3.9v-65
				c0-2.2,1.8-3.9,3.9-3.9h2.6c1.4,0,3.1,1.2,3.6,2.4l15,37.1v-35.6c0-2.2,1.7-3.9,3.9-3.9h3c2.2,0,3.9,1.7,3.9,3.9v65
				c0,2.2-1.7,3.9-3.9,3.9H312.8z"/>
			<path class="st2" d="M331.8,505.3c-2.2,0-3.9-1.7-3.9-3.9v-65c0-2.2,1.7-3.9,3.9-3.9h11c12.9,0,19,7.3,19,21.4v30
				c0,14-6,21.4-19,21.4H331.8z M338.6,443.3v51.4h4.2c5.7,0,8.1-3.5,8.1-10.7v-30c0-7.2-2.4-10.7-8.1-10.7H338.6z"/>
			<path class="st2" d="M397.8,432.6c2.2,0,3.9,1.7,3.9,3.9v2.9c0,2.2-1.7,3.9-3.9,3.9h-16.5v20.3h13.6c2.2,0,3.9,1.7,3.9,3.9v2.9
				c0,2.2-1.7,3.9-3.9,3.9h-13.6v20.4h16.5c2.2,0,3.9,1.7,3.9,3.9v2.9c0,2.2-1.7,3.9-3.9,3.9h-23.3c-2.2,0-3.9-1.7-3.9-3.9v-65
				c0-2.2,1.7-3.9,3.9-3.9H397.8z"/>
		</g>
	</g>
</g>
</svg>
